<?xml version="1.0" encoding="utf-8"?><svg xmlns="http://www.w3.org/2000/svg" xmlns:xlink="http://www.w3.org/1999/xlink"><symbol viewBox="0 0 16 16" id="svg--brush" xmlns="http://www.w3.org/2000/svg"><path fill-rule="evenodd" d="M2.27 10.918C1.071 12.097 2.084 13.306.49 15.1c-.719.81 2.961.563 4.784-1.23.773-.76.555-1.868-.275-2.683-.828-.816-1.955-1.03-2.729-.27zM15.56.698c-.617-.605-7.43 4.855-9.458 6.848-1.007.99-1.343 1.52-1.65 1.917-.135.172.042.226.122.267.398.202.677.392 1.038.746.36.354.553.629.76 1.02.04.08.095.253.27.122.404-.304.944-.634 1.95-1.624C10.62 8 16.174 1.302 15.559.698z"/></symbol><symbol viewBox="0 0 13 16" id="svg--music" xmlns="http://www.w3.org/2000/svg"><path fill-rule="evenodd" d="M4.076 2.171v9.4c-.512-.107-1.107-.066-1.698.152-1.328.494-1.797 1.695-1.445 2.682.352.988 1.392 1.387 2.72.893 1.128-.418 1.867-1.348 1.849-2.223V5.31l5.624-1.288v5.964a3.108 3.108 0 0 0-1.699.153c-1.328.494-1.797 1.695-1.445 2.682.352.988 1.392 1.387 2.72.894 1.128-.419 1.867-1.349 1.85-2.223V.35L4.075 2.171z"/></symbol><symbol viewBox="0 0 16 14" id="svg--photo" xmlns="http://www.w3.org/2000/svg"><path fill-rule="evenodd" d="M7.986 5.346a2.376 2.376 0 1 0 .001 4.752 2.376 2.376 0 0 0 0-4.752zm6.337-2.376h-1.9a.705.705 0 0 1-.626-.45l-.491-1.475a.706.706 0 0 0-.626-.45H5.294a.705.705 0 0 0-.626.45l-.491 1.474a.707.707 0 0 1-.626.45h-1.9A1.59 1.59 0 0 0 .066 4.554v7.128c0 .872.713 1.584 1.584 1.584h12.674c.871 0 1.584-.712 1.584-1.584V4.554a1.59 1.59 0 0 0-1.585-1.584zm-6.337 8.712a3.96 3.96 0 1 1 0-7.92 3.96 3.96 0 0 1 0 7.92zm5.783-6.02a.554.554 0 1 1 .002-1.11.554.554 0 0 1-.002 1.11z"/></symbol><symbol viewBox="0 0 17 16" id="svg--plane" xmlns="http://www.w3.org/2000/svg"><path fill-rule="evenodd" d="M4.454 15.058h1.584l3.554-6.336h4.09s2.376 0 2.376-1.11c0-1.109-2.376-1.109-2.376-1.109h-4.09L6.038.167H4.454l1.97 6.336h-2.84L1.8 4.92H.217l1.267 2.694-1.267 2.693H1.8l1.782-1.584h2.841l-1.97 6.336z"/></symbol></svg>